FFmpeg version SVN-r25716, Copyright (c) 2000-2010 the FFmpeg developers  built on Nov 10 2010 12:23:18 with gcc 4.1.2 20080704 (Red Hat 4.1.2-48)  configuration: --enable-libmp3lame --enable-shared --disable-mmx --arch=x86_64  libavutil     50.33. 0 / 50.33. 0  libavcore      0.12. 1 /  0.12. 1  libavcodec    52.94. 4 / 52.94. 4  libavformat   52.84. 0 / 52.84. 0  libavdevice   52. 2. 2 / 52. 2. 2  libavfilter    1.59. 0 /  1.59. 0  libswscale     0.12. 0 /  0.12. 0Input #0, avi, from '/RAID10/data/converted_video_files/47653.avi':  Duration: 00:00:15.00, start: 0.000000, bitrate: 188586 kb/s    Stream #0.0: Video: msvideo1, rgb555le, 1024x1024, 20 tbr, 20 tbn, 20 tbc[buffer @ 0x1aae3050] w:1024 h:1024 pixfmt:rgb555le[ffsink @ 0x1aae32c0] auto-inserting filter 'auto-inserted scaler 0' between the filter 'src' and the filter 'out'[scale @ 0x1aaf5250] w:1024 h:1024 fmt:rgb555le -> w:1024 h:1024 fmt:yuv420p flags:0x4Output #0, flv, to '/RAID10/data/converted_video_files/47653.flv':  Metadata:    encoder         : Lavf52.84.0    Stream #0.0: Video: flv, yuv420p, 1024x1024, q=2-31, 600 kb/s, 1k tbn, 24 tbcStream mapping:  Stream #0.0 -> #0.0Press [q] to stop encodingframe=    7 fps=  0 q=12.4 size=    1314kB time=0.33 bitrate=32235.3kbits/s    frame=   14 fps= 11 q=11.2 size=    1677kB time=0.71 bitrate=19407.7kbits/s    frame=   21 fps= 12 q=29.0 size=    1798kB time=1.04 bitrate=14137.6kbits/s    frame=   31 fps= 14 q=31.0 size=    1848kB time=1.54 bitrate=9817.1kbits/s    frame=   41 fps= 15 q=31.0 size=    1895kB time=2.04 bitrate=7604.7kbits/s    frame=   51 fps= 16 q=24.8 size=    1939kB time=2.54 bitrate=6247.3kbits/s    frame=   62 fps= 16 q=31.0 size=    1959kB time=3.08 bitrate=5204.5kbits/s    frame=   72 fps= 17 q=31.0 size=    2005kB time=3.58 bitrate=4581.9kbits/s    frame=   82 fps= 17 q=31.0 size=    2049kB time=4.08 bitrate=4110.1kbits/s    frame=   92 fps= 17 q=31.0 size=    2092kB time=4.58 bitrate=3739.8kbits/s    frame=  102 fps= 18 q=31.0 size=    2135kB time=5.08 bitrate=3440.9kbits/s    frame=  110 fps= 17 q=31.0 size=    2148kB time=5.50 bitrate=3200.4kbits/s    frame=  118 fps= 17 q=31.0 size=    2189kB time=5.88 bitrate=3052.4kbits/s    frame=  127 fps= 17 q=31.0 size=    2231kB time=6.33 bitrate=2885.6kbits/s    frame=  138 fps= 17 q=31.0 size=    2275kB time=6.88 bitrate=2711.4kbits/s    frame=  148 fps= 18 q=31.0 size=    2318kB time=7.38 bitrate=2574.6kbits/s    frame=  158 fps= 18 q=31.0 size=    2333kB time=7.87 bitrate=2427.5kbits/s    frame=  166 fps= 18 q=31.0 size=    2374kB time=8.29 bitrate=2345.7kbits/s    frame=  176 fps= 18 q=31.0 size=    2423kB time=8.79 bitrate=2257.4kbits/s    frame=  186 fps= 18 q=31.0 size=    2471kB time=9.29 bitrate=2178.1kbits/s    frame=  197 fps= 18 q=31.0 size=    2514kB time=9.83 bitrate=2094.2kbits/s    frame=  207 fps= 18 q=24.8 size=    2554kB time=10.33 bitrate=2024.3kbits/s    frame=  218 fps= 18 q=31.0 size=    2570kB time=10.87 bitrate=1936.2kbits/s    frame=  229 fps= 18 q=31.0 size=    2613kB time=11.46 bitrate=1868.1kbits/s    frame=  240 fps= 18 q=31.0 size=    2656kB time=12.00 bitrate=1813.3kbits/s    frame=  246 fps= 18 q=31.0 size=    2692kB time=12.29 bitrate=1794.4kbits/s    frame=  256 fps= 18 q=31.0 size=    2733kB time=12.79 bitrate=1750.5kbits/s    frame=  266 fps= 18 q=31.0 size=    2746kB time=13.29 bitrate=1692.6kbits/s    frame=  277 fps= 18 q=31.0 size=    2789kB time=13.83 bitrate=1651.3kbits/s    frame=  287 fps= 18 q=31.0 size=    2830kB time=14.33 bitrate=1617.6kbits/s    frame=  298 fps= 18 q=31.0 size=    2872kB time=14.88 bitrate=1581.9kbits/s    frame=  300 fps= 18 q=31.0 Lsize=    2875kB time=15.00 bitrate=1570.1kbits/s    video:2870kB audio:0kB global headers:0kB muxing overhead 0.170468%